# Made in Blockbench 4.10.0
mtllib MWave.mtl

o Cube.006
v 0.53952 0 0.49798
v 0.53952 0.0832 0.49798
v 0.53952 0.0832 0.37702
v 0.53952 0 0.37702
v 0.66048 0.0832 0.37702
v 0.66048 0 0.37702
v 0.66048 0.0832 0.49798
v 0.66048 0 0.49798
v -0.66048 0 0.49798
v -0.66048 0.0832 0.49798
v -0.66048 0.0832 0.37702
v -0.66048 0 0.37702
v -0.53952 0.0832 0.37702
v -0.53952 0 0.37702
v -0.53952 0.0832 0.49798
v -0.53952 0 0.49798
v 0.53952 0 -0.50202
v 0.53952 0.0832 -0.50202
v 0.53952 0.0832 -0.62298
v 0.53952 0 -0.62298
v 0.66048 0.0832 -0.62298
v 0.66048 0 -0.62298
v 0.66048 0.0832 -0.50202
v 0.66048 0 -0.50202
v -0.66048 0 -0.50202
v -0.66048 0.0832 -0.50202
v -0.66048 0.0832 -0.62298
v -0.66048 0 -0.62298
v -0.53952 0.0832 -0.62298
v -0.53952 0 -0.62298
v -0.53952 0.0832 -0.50202
v -0.53952 0 -0.50202
vt 0.015625 0.9921875
vt 0.015625 1
vt 0 1
vt 0 0.9921875
vt 0.0390625 0.9921875
vt 0.0390625 1
vt 0.0234375 1
vt 0.0234375 0.9921875
vt 0.0625 0.9921875
vt 0.0625 1
vt 0.046875 1
vt 0.046875 0.9921875
vt 0.0859375 0.9921875
vt 0.0859375 1
vt 0.0703125 1
vt 0.0703125 0.9921875
vt 0.140625 0.640625
vt 0.15625 0.640625
vt 0.15625 0.65625
vt 0.140625 0.65625
vt 0.1796875 0.65625
vt 0.1640625 0.65625
vt 0.1640625 0.640625
vt 0.1796875 0.640625
vt 0.109375 0.9921875
vt 0.109375 1
vt 0.09375 1
vt 0.09375 0.9921875
vt 0.015625 0.6640625
vt 0.015625 0.671875
vt 0 0.671875
vt 0 0.6640625
vt 0.0390625 0.6640625
vt 0.0390625 0.671875
vt 0.0234375 0.671875
vt 0.0234375 0.6640625
vt 0.0625 0.6640625
vt 0.0625 0.671875
vt 0.046875 0.671875
vt 0.046875 0.6640625
vt 0.03125 0.6171875
vt 0.046875 0.6171875
vt 0.046875 0.6328125
vt 0.03125 0.6328125
vt 0.0703125 0.6328125
vt 0.0546875 0.6328125
vt 0.0546875 0.6171875
vt 0.0703125 0.6171875
vt 0.0859375 0.6640625
vt 0.0859375 0.671875
vt 0.0703125 0.671875
vt 0.0703125 0.6640625
vt 0.109375 0.6640625
vt 0.109375 0.671875
vt 0.09375 0.671875
vt 0.09375 0.6640625
vt 0.046875 0.6015625
vt 0.046875 0.609375
vt 0.03125 0.609375
vt 0.03125 0.6015625
vt 0.0703125 0.6015625
vt 0.0703125 0.609375
vt 0.0546875 0.609375
vt 0.0546875 0.6015625
vt 0.078125 0.6171875
vt 0.09375 0.6171875
vt 0.09375 0.6328125
vt 0.078125 0.6328125
vt 0.1171875 0.6328125
vt 0.1015625 0.6328125
vt 0.1015625 0.6171875
vt 0.1171875 0.6171875
vt 0.09375 0.6015625
vt 0.09375 0.609375
vt 0.078125 0.609375
vt 0.078125 0.6015625
vt 0.1171875 0.6015625
vt 0.1171875 0.609375
vt 0.1015625 0.609375
vt 0.1015625 0.6015625
vt 0.2734375 0.59375
vt 0.2734375 0.6015625
vt 0.2578125 0.6015625
vt 0.2578125 0.59375
vt 0.296875 0.59375
vt 0.296875 0.6015625
vt 0.28125 0.6015625
vt 0.28125 0.59375
vt 0.2578125 0.609375
vt 0.2734375 0.609375
vt 0.2734375 0.625
vt 0.2578125 0.625
vt 0.296875 0.625
vt 0.28125 0.625
vt 0.28125 0.609375
vt 0.296875 0.609375
vn -1 0 0
vn 0 0 -1
vn 1 0 0
vn 0 0 1
vn 0 -1 0
vn 0 1 0
vn -1 0 0
vn 0 0 -1
vn 1 0 0
vn 0 0 1
vn 0 -1 0
vn 0 1 0
vn -1 0 0
vn 0 0 -1
vn 1 0 0
vn 0 0 1
vn 0 -1 0
vn 0 1 0
vn -1 0 0
vn 0 0 -1
vn 1 0 0
vn 0 0 1
vn 0 -1 0
vn 0 1 0
usemtl m_f1017586-b018-bf29-6bd5-756b0f164e61
f 1/1/1 2/2/1 3/3/1 4/4/1
f 4/5/2 3/6/2 5/7/2 6/8/2
f 6/9/3 5/10/3 7/11/3 8/12/3
f 8/13/4 7/14/4 2/15/4 1/16/4
f 4/17/5 6/18/5 8/19/5 1/20/5
f 5/21/6 3/22/6 2/23/6 7/24/6
f 9/25/7 10/26/7 11/27/7 12/28/7
f 12/29/8 11/30/8 13/31/8 14/32/8
f 14/33/9 13/34/9 15/35/9 16/36/9
f 16/37/10 15/38/10 10/39/10 9/40/10
f 12/41/11 14/42/11 16/43/11 9/44/11
f 13/45/12 11/46/12 10/47/12 15/48/12
f 17/49/13 18/50/13 19/51/13 20/52/13
f 20/53/14 19/54/14 21/55/14 22/56/14
f 22/57/15 21/58/15 23/59/15 24/60/15
f 24/61/16 23/62/16 18/63/16 17/64/16
f 20/65/17 22/66/17 24/67/17 17/68/17
f 21/69/18 19/70/18 18/71/18 23/72/18
f 25/73/19 26/74/19 27/75/19 28/76/19
f 28/77/20 27/78/20 29/79/20 30/80/20
f 30/81/21 29/82/21 31/83/21 32/84/21
f 32/85/22 31/86/22 26/87/22 25/88/22
f 28/89/23 30/90/23 32/91/23 25/92/23
f 29/93/24 27/94/24 26/95/24 31/96/24
o Cube.005
v 0.223044 0.2012 0.710448
v 0.223044 0.8652 0.710448
v 0.335044 0.8652 0.710448
v 0.335044 0.2012 0.710448
v 0.335044 0.8652 0.790448
v 0.335044 0.2012 0.790448
v 0.223044 0.2012 0.790448
v 0.223044 0.8652 0.790448
vt 0.515625 0.796875
vt 0.515625 0.8828125
vt 0.5 0.8828125
vt 0.5 0.796875
vt 0.4375 0.4140625
vt 0.4375 0.5
vt 0.4296875 0.5
vt 0.4296875 0.4140625
vt 0.3046875 0.59375
vt 0.3203125 0.59375
vt 0.3203125 0.6015625
vt 0.3046875 0.6015625
vt 0.453125 0.4140625
vt 0.453125 0.5
vt 0.4453125 0.5
vt 0.4453125 0.4140625
vt 0.515625 0.5546875
vt 0.515625 0.640625
vt 0.5 0.640625
vt 0.5 0.5546875
vt 0.046875 0.59375
vt 0.03125 0.59375
vt 0.03125 0.5859375
vt 0.046875 0.5859375
vn 0 0 -1
vn 1 0 0
vn 0 -1 0
vn -1 0 0
vn 0 0 1
vn 0 1 0
usemtl m_f1017586-b018-bf29-6bd5-756b0f164e61
f 33/97/25 34/98/25 35/99/25 36/100/25
f 36/101/26 35/102/26 37/103/26 38/104/26
f 33/105/27 36/106/27 38/107/27 39/108/27
f 39/109/28 40/110/28 34/111/28 33/112/28
f 38/113/29 37/114/29 40/115/29 39/116/29
f 35/117/30 34/118/30 40/119/30 37/120/30
o Cube.004
v 0.239044 0.643816 0.630448
v 0.239044 0.723816 0.630448
v 0.319044 0.723816 0.630448
v 0.319044 0.643816 0.630448
v 0.319044 0.723816 0.710448
v 0.319044 0.643816 0.710448
v 0.239044 0.643816 0.710448
v 0.239044 0.723816 0.710448
vt 0.1328125 0.625
vt 0.1328125 0.6328125
vt 0.125 0.6328125
vt 0.125 0.625
vt 0.3359375 0.6171875
vt 0.3359375 0.625
vt 0.328125 0.625
vt 0.328125 0.6171875
vt 0.125 0.609375
vt 0.1328125 0.609375
vt 0.1328125 0.6171875
vt 0.125 0.6171875
vt 0.3359375 0.6015625
vt 0.3359375 0.609375
vt 0.328125 0.609375
vt 0.328125 0.6015625
vt 0.1328125 0.59375
vt 0.1328125 0.6015625
vt 0.125 0.6015625
vt 0.125 0.59375
vt 0.0625 0.59375
vt 0.0546875 0.59375
vt 0.0546875 0.5859375
vt 0.0625 0.5859375
vn 0 0 -1
vn 1 0 0
vn 0 -1 0
vn -1 0 0
vn 0 0 1
vn 0 1 0
usemtl m_f1017586-b018-bf29-6bd5-756b0f164e61
f 41/121/31 42/122/31 43/123/31 44/124/31
f 44/125/32 43/126/32 45/127/32 46/128/32
f 41/129/33 44/130/33 46/131/33 47/132/33
f 47/133/34 48/134/34 42/135/34 41/136/34
f 46/137/35 45/138/35 48/139/35 47/140/35
f 43/141/36 42/142/36 48/143/36 45/144/36
o Cube.003
v 0.35 0.0832 0.504
v -0.7 0.0832 0.504
v -0.7 0.9832 0.504
v 0.35 0.9832 0.504
v 0.35 0.0832 0.63
v 0.35 0.9832 0.63
v -0.7 0.9832 0.63
v -0.7 0.0832 0.63
vt 0.34375 0.640625
vt 0.4765625 0.640625
vt 0.4765625 0.75
vt 0.34375 0.75
vt 0.4921875 0.765625
vt 0.4921875 0.875
vt 0.359375 0.875
vt 0.359375 0.765625
vt 0.1328125 0.53125
vt 0.1171875 0.53125
vt 0.1171875 0.421875
vt 0.1328125 0.421875
vt 0.5 0.6484375
vt 0.5 0.7578125
vt 0.484375 0.7578125
vt 0.484375 0.6484375
vt 0.5078125 0.90625
vt 0.375 0.90625
vt 0.375 0.890625
vt 0.5078125 0.890625
vt 0.4296875 0.5078125
vt 0.5625 0.5078125
vt 0.5625 0.5234375
vt 0.4296875 0.5234375
vn 0 0 -1
vn 0 0 1
vn -1 0 0
vn 1 0 0
vn 0 1 0
vn 0 -1 0
usemtl m_f1017586-b018-bf29-6bd5-756b0f164e61
f 49/145/37 50/146/37 51/147/37 52/148/37
f 53/149/38 54/150/38 55/151/38 56/152/38
f 55/153/39 51/154/39 50/155/39 56/156/39
f 49/157/40 52/158/40 54/159/40 53/160/40
f 52/161/41 51/162/41 55/163/41 54/164/41
f 50/165/42 49/166/42 53/167/42 56/168/42
o Cube.002
v -0.7 0.8752 0.504
v -0.7 0.9832 0.504
v -0.7 0.9832 -0.63
v -0.7 0.8752 -0.63
v 0.35 0.8752 -0.63
v 0.35 0.9832 -0.63
v 0.7 0.9832 -0.63
v 0.7 0.8752 -0.63
v 0.7 0.8752 0.504
v 0.7 0.9832 0.504
v 0.7 0.9832 0.63
v 0.7 0.8752 0.63
v 0.35 0.0832 0.504
v 0.7 0.0832 0.504
v 0.7 0.0832 0.63
v 0.35 0.0832 0.63
v 0.7 0.1912 0.504
v 0.7 0.1912 0.63
v 0.35 0.0832 -0.63
v 0.35 0.1912 -0.63
v 0.7 0.1912 -0.63
v 0.7 0.0832 -0.63
v -0.7 0.0832 0.504
v -0.7 0.1912 0.504
v -0.7 0.1912 -0.63
v -0.7 0.0832 -0.63
v -0.5425 0.1912 -0.63
v -0.5425 0.8752 -0.63
v -0.5425 0.0832 -0.63
v 0.35 0.8752 0.63
v 0.35 0.1912 0.63
v 0.35 0.9832 0.504
v 0.35 0.9832 0.63
v -0.5425 0.9832 -0.63
v 0.35 0.8752 0.504
v -0.5425 0.9832 0.504
v -0.5425 0.8752 0.504
v 0.35 0.1912 0.504
v -0.5425 0.1912 0.504
v -0.5425 0.0832 0.504
v 0.35 0.1912 -0.496
v -0.5425 0.1912 -0.496
v 0.35 0.8752 -0.496
v -0.5425 0.8752 -0.496
vt 0.330640625 0.7364999999999999
vt 0.330640625 0.75
vt 0.188890625 0.75
vt 0.188890625 0.7364999999999999
vt 0.231640625 0.9865
vt 0.231640625 1
vt 0.187890625 1
vt 0.187890625 0.9865
vt 0.204578125 0.8614999999999999
vt 0.204578125 0.875
vt 0.188828125 0.875
vt 0.188828125 0.8614999999999999
vt 0.13164062499999998 0.9815937499999999
vt 0.175390625 0.9815937499999999
vt 0.175390625 0.99734375
vt 0.13164062499999998 0.99734375
vt 0.204578125 0.7625
vt 0.204578125 0.776
vt 0.188828125 0.776
vt 0.188828125 0.7625
vt 0.204578125 0.776
vt 0.204578125 0.8614999999999999
vt 0.188828125 0.8614999999999999
vt 0.188828125 0.776
vt 0.231640625 0.8875
vt 0.231640625 0.901
vt 0.187890625 0.901
vt 0.187890625 0.8875
vt 0.231640625 0.901
vt 0.231640625 0.9865
vt 0.187890625 0.9865
vt 0.187890625 0.901
vt 0.330640625 0.6375
vt 0.330640625 0.651
vt 0.18889062500000003 0.651
vt 0.18889062500000003 0.6375
vt 0.330640625 0.651
vt 0.330640625 0.7364999999999999
vt 0.18889062500000003 0.7364999999999999
vt 0.18889062500000003 0.651
vt 0.343203125 0.901
vt 0.343203125 0.9865
vt 0.231640625 0.9865
vt 0.231640625 0.901
vt 0.343203125 0.8875
vt 0.343203125 0.901
vt 0.231640625 0.901
vt 0.231640625 0.8875
vt 0.4203125 0.4400625
vt 0.4203125 0.5255624999999999
vt 0.3765625 0.5255624999999999
vt 0.3765625 0.4400625
vt 0.4203125 0.42656249999999996
vt 0.4203125 0.4400625
vt 0.3765625 0.4400625
vt 0.3765625 0.42656249999999996
vt 0.175390625 0.686375
vt 0.13164062499999998 0.686375
vt 0.13164062499999998 0.670625
vt 0.175390625 0.670625
vt 0.4203125 0.5255624999999999
vt 0.4203125 0.5390625
vt 0.3765625 0.5390625
vt 0.3765625 0.5255624999999999
vt 0.343203125 0.9865
vt 0.343203125 1
vt 0.231640625 1
vt 0.231640625 0.9865
vt 0.362890625 0.9865
vt 0.362890625 1
vt 0.343203125 1
vt 0.343203125 0.9865
vt 0.362890625 0.8875
vt 0.362890625 0.901
vt 0.343203125 0.901
vt 0.343203125 0.8875
vt 0.362890625 0.901
vt 0.362890625 0.9865
vt 0.343203125 0.9865
vt 0.343203125 0.901
vt 0.13203125 0.6427499999999999
vt 0.13203125 0.65625
vt 0.020468750000000008 0.65625
vt 0.020468750000000008 0.6427499999999999
vt 0.13203125 0.54375
vt 0.13203125 0.55725
vt 0.020468750000000008 0.55725
vt 0.020468750000000008 0.54375
vt 0.140625 0.5
vt 0.25 0.5
vt 0.25 0.625
vt 0.140625 0.625
vt 0.13164062499999998 0.828125
vt 0.020078125000000002 0.828125
vt 0.020078125000000002 0.686375
vt 0.13164062499999998 0.686375
vt 0.00039062500000000555 0.83984375
vt 0.020078125000000002 0.83984375
vt 0.020078125000000002 0.9815937499999999
vt 0.00039062500000000555 0.9815937499999999
vt 0.020078125000000002 0.83984375
vt 0.13164062499999998 0.83984375
vt 0.13164062499999998 0.9815937499999999
vt 0.020078125000000002 0.9815937499999999
vt 0.175390625 0.828125
vt 0.13164062499999998 0.828125
vt 0.13164062499999998 0.686375
vt 0.175390625 0.686375
vt 0.48639062499999997 0.5473125
vt 0.48639062499999997 0.6328125
vt 0.47064062500000003 0.6328125
vt 0.47064062500000003 0.5473125
vt 0.48639062499999997 0.5338125
vt 0.48639062499999997 0.5473125
vt 0.47064062500000003 0.5473125
vt 0.47064062500000003 0.5338125
vt 0.346328125 0.776
vt 0.346328125 0.8614999999999999
vt 0.204578125 0.8614999999999999
vt 0.204578125 0.776
vt 0.346328125 0.7625
vt 0.346328125 0.776
vt 0.204578125 0.776
vt 0.204578125 0.7625
vt 0.020078125000000002 0.828125
vt 0.00039062500000000555 0.828125
vt 0.00039062500000000555 0.686375
vt 0.020078125000000002 0.686375
vt 0.13164062499999998 0.83984375
vt 0.175390625 0.83984375
vt 0.175390625 0.9815937499999999
vt 0.13164062499999998 0.9815937499999999
vt 0.346328125 0.8614999999999999
vt 0.346328125 0.875
vt 0.204578125 0.875
vt 0.204578125 0.8614999999999999
vt 0.3203125 0.609375
vt 0.3203125 0.625
vt 0.3046875 0.625
vt 0.3046875 0.609375
vt 0.020468750000000008 0.6427499999999999
vt 0.020468750000000008 0.65625
vt 0.0007812500000000111 0.65625
vt 0.0007812500000000111 0.6427499999999999
vt 0.020468750000000008 0.55725
vt 0.0007812500000000111 0.55725
vt 0.0007812500000000111 0.54375
vt 0.020468750000000008 0.54375
vt 0.020468750000000008 0.55725
vt 0.020468750000000008 0.6427499999999999
vt 0.0007812500000000111 0.6427499999999999
vt 0.0007812500000000111 0.55725
vt 0.109375 0.4453125
vt 0.109375 0.53125
vt 0 0.53125
vt 0 0.4453125
vt 0.375 1
vt 0.375 0.9140625
vt 0.5 0.9140625
vt 0.5 1
vt 0.3671875 0.5390625
vt 0.2578125 0.5390625
vt 0.2578125 0.4140625
vt 0.3671875 0.4140625
vt 0.47064062500000003 0.5473125
vt 0.47064062500000003 0.6328125
vt 0.34564062500000003 0.6328125
vt 0.34564062500000003 0.5473125
vn -1 0 0
vn 0 0 -1
vn 1 0 0
vn 0 -1 0
vn 1 0 0
vn 1 0 0
vn 0 0 -1
vn 0 0 -1
vn -1 0 0
vn -1 0 0
vn 0 0 -1
vn 0 0 -1
vn 0 0 1
vn 0 0 1
vn 0 1 0
vn 0 0 1
vn 0 0 -1
vn 0 0 -1
vn 0 0 -1
vn 0 0 -1
vn 0 0 1
vn 0 0 1
vn 0 1 0
vn 0 1 0
vn 0 -1 0
vn 0 -1 0
vn 0 1 0
vn -1 0 0
vn -1 0 0
vn 1 0 0
vn 1 0 0
vn 0 1 0
vn 0 -1 0
vn 1 0 0
vn -1 0 0
vn 0 0 1
vn 0 0 1
vn 0 0 1
vn 0 0 1
vn 1 0 0
vn 0 -1 0
vn -1 0 0
usemtl m_f1017586-b018-bf29-6bd5-756b0f164e61
f 57/169/43 58/170/43 59/171/43 60/172/43
f 61/173/44 62/174/44 63/175/44 64/176/44
f 65/177/45 66/178/45 67/179/45 68/180/45
f 69/181/46 70/182/46 71/183/46 72/184/46
f 70/185/47 73/186/47 74/187/47 71/188/47
f 73/189/48 65/190/48 68/191/48 74/192/48
f 75/193/49 76/194/49 77/195/49 78/196/49
f 76/197/50 61/198/50 64/199/50 77/200/50
f 79/201/51 80/202/51 81/203/51 82/204/51
f 80/205/52 57/206/52 60/207/52 81/208/52
f 83/209/53 84/210/53 61/211/53 76/212/53
f 85/213/54 83/214/54 76/215/54 75/216/54
f 74/217/55 68/218/55 86/219/55 87/220/55
f 71/221/56 74/222/56 87/223/56 72/224/56
f 66/225/57 88/226/57 89/227/57 67/228/57
f 68/229/58 67/230/58 89/231/58 86/232/58
f 84/233/59 90/234/59 62/235/59 61/236/59
f 60/237/60 59/238/60 90/239/60 84/240/60
f 82/241/61 81/242/61 83/243/61 85/244/61
f 81/245/62 60/246/62 84/247/62 83/248/62
f 91/249/63 88/250/63 92/251/63 93/252/63
f 69/253/64 94/254/64 95/255/64 96/256/64
f 95/257/65 94/258/65 97/259/65 98/260/65
f 62/261/66 90/262/66 92/263/66 88/264/66
f 82/265/67 85/266/67 96/267/67 79/268/67
f 85/269/68 75/270/68 69/271/68 96/272/68
f 63/273/69 62/274/69 88/275/69 66/276/69
f 87/277/70 86/278/70 91/279/70 94/280/70
f 72/281/71 87/282/71 94/283/71 69/284/71
f 77/285/72 64/286/72 65/287/72 73/288/72
f 78/289/73 77/290/73 73/291/73 70/292/73
f 90/293/74 59/294/74 58/295/74 92/296/74
f 75/297/75 78/298/75 70/299/75 69/300/75
f 64/301/76 63/302/76 66/303/76 65/304/76
f 86/305/77 89/306/77 88/307/77 91/308/77
f 93/309/78 92/310/78 58/311/78 57/312/78
f 95/313/79 80/314/79 79/315/79 96/316/79
f 95/317/80 93/318/80 57/319/80 80/320/80
f 97/321/81 99/322/81 100/323/81 98/324/81
f 93/325/82 95/326/82 98/327/82 100/328/82
f 91/329/83 93/330/83 100/331/83 99/332/83
f 94/333/84 91/334/84 99/335/84 97/336/84
o Cube.001
v 0.239044 0.297448 0.630448
v 0.239044 0.377448 0.630448
v 0.319044 0.377448 0.630448
v 0.319044 0.297448 0.630448
v 0.319044 0.377448 0.710448
v 0.319044 0.297448 0.710448
v 0.239044 0.297448 0.710448
v 0.239044 0.377448 0.710448
vt 0.078125 0.5859375
vt 0.078125 0.59375
vt 0.0703125 0.59375
vt 0.0703125 0.5859375
vt 0.09375 0.5859375
vt 0.09375 0.59375
vt 0.0859375 0.59375
vt 0.0859375 0.5859375
vt 0.1015625 0.5859375
vt 0.109375 0.5859375
vt 0.109375 0.59375
vt 0.1015625 0.59375
vt 0.3359375 0.5859375
vt 0.3359375 0.59375
vt 0.328125 0.59375
vt 0.328125 0.5859375
vt 0.125 0.578125
vt 0.125 0.5859375
vt 0.1171875 0.5859375
vt 0.1171875 0.578125
vt 0.265625 0.5859375
vt 0.2578125 0.5859375
vt 0.2578125 0.578125
vt 0.265625 0.578125
vn 0 0 -1
vn 1 0 0
vn 0 -1 0
vn -1 0 0
vn 0 0 1
vn 0 1 0
usemtl m_f1017586-b018-bf29-6bd5-756b0f164e61
f 101/337/85 102/338/85 103/339/85 104/340/85
f 104/341/86 103/342/86 105/343/86 106/344/86
f 101/345/87 104/346/87 106/347/87 107/348/87
f 107/349/88 108/350/88 102/351/88 101/352/88
f 106/353/89 105/354/89 108/355/89 107/356/89
f 103/357/90 102/358/90 108/359/90 105/360/90